inDegrees=yes
name=ik_S44_A02_T01
DataType=double
version=3
OpenSimVersion=4.3-2021-08-27-4bc7ad9
endheader
time	pelvis_tilt	pelvis_list	pelvis_rotation	pelvis_tx	pelvis_ty	pelvis_tz	hip_flexion_r	hip_adduction_r	hip_rotation_r	knee_angle_r	knee_angle_r_beta	ankle_angle_r	subtalar_angle_r	mtp_angle_r	hip_flexion_l	hip_adduction_l	hip_rotation_l	knee_angle_l	knee_angle_l_beta	ankle_angle_l	subtalar_angle_l	mtp_angle_l	lumbar_extension	lumbar_bending	lumbar_rotation	arm_flex_r	arm_add_r	arm_rot_r	elbow_flex_r	pro_sup_r	wrist_flex_r	wrist_dev_r	arm_flex_l	arm_add_l	arm_rot_l	elbow_flex_l	pro_sup_l	wrist_flex_l	wrist_dev_l
15.31999999999976	-0.7865992305579156	-0.8172567152517793	-89.66441990095066	0	0.9399999999999999	0	18.43717428373416	-0.7921220861280251	-5.559954790782207	9.905552771642274	0.1728845100952077	0	0	0	-4.554950830493469	-2.526443766918928	-10.0091040321803	7.700459727228737	0.1343983761573659	0	0	0	0	0	0	27.1487040383135	-27.14870403831346	3.993107665528838	71.24577051094758	86.00689256003662	0	0	27.1487040383135	-27.14870403831346	3.993107665528838	71.24577051094758	86.00689255984713	0	0
15.33999999999976	-0.8885037406414203	-0.981587951988133	-89.8024016746503	0	0.9399999999999999	0	18.24689465755269	-1.16986431466645	-5.448416616490174	12.97270570971548	0.2264164275268029	0	0	0	-4.249283172823807	-2.678061950512508	-10.61235696599212	8.249233559456162	0.1439762863785214	0	0	0	0	0	0	27.15615986858695	-27.15615986858691	3.993934706617805	71.25730158397765	86.00606551899173	0	0	27.15615986858695	-27.15615986858691	3.993934706617805	71.25730158397765	86.00606551880236	0	0
15.35999999999976	-1.040794885869635	-1.266388668297796	-89.91639216505754	0	0.9399999999999999	0	17.79550531466043	-1.516703612806672	-5.517693137947048	16.61578862072351	0.2900002192470326	0	0	0	-4.05453064289478	-2.807276381437348	-11.25684564861333	7.431424178998098	0.1297028200358332	0	0	0	0	0	0	27.16354940009101	-27.16354940009096	3.994752504873622	71.26870176188947	86.00524772077955	0	0	27.16354940009101	-27.16354940009096	3.994752504873622	71.26870176188947	86.00524772059022	0	0
15.37999999999976	-1.117862830558217	-1.434417974766856	-89.92201050154762	0	0.9399999999999999	0	17.36588326204712	-1.88835139281568	-5.38328452292979	20.77077697267966	0.3625184463706804	0	0	0	-3.74429055776899	-2.831546711435601	-11.56646334954547	7.243770444943388	0.1264276445229167	0	0	0	0	0	0	27.17183519704667	-27.17183519704662	3.995671230732038	71.28151007953596	86.00432899497001	0	0	27.17183519704667	-27.17183519704662	3.995671230732038	71.28151007953596	86.00432899478081	0	0
15.39999999999976	-1.269665749500005	-1.842734554197754	-89.80345064946704	0	0.9399999999999999	0	16.44295359263949	-1.949510583820724	-5.682203995665652	22.53758348292953	0.3933550372202115	0	0	0	-3.600303990716217	-3.004407629205236	-11.67725880703289	7.195242697567979	0.1255806755526398	0	0	0	0	0	0	27.17948994265186	-27.17948994265181	3.996516912436578	71.29329681446202	86.00348331331044	0	0	27.17948994265186	-27.17948994265181	3.996516912436578	71.29329681446202	86.00348331312141	0	0
15.41999999999976	-1.338021854432973	-2.231892193748799	-89.48771576051016	0	0.9399999999999999	0	15.28376772337345	-2.284493918926371	-5.932681273422517	26.52141978307785	0.4628860975182687	0	0	0	-3.397423160795119	-3.065612175342753	-11.21252440703183	7.135454549640452	0.1245371755176351	0	0	0	0	0	0	27.18740748696301	-27.18740748696296	3.997392427346453	71.30549982215284	86.00260779844704	0	0	27.18740748696301	-27.18740748696296	3.997392427346453	71.30549982215284	86.00260779825817	0	0
15.43999999999976	-1.332215574283462	-2.566880875365641	-89.11497805666576	0	0.9399999999999999	0	14.89609625333541	-2.774233012896814	-6.056016858718388	30.80948495630502	0.5377269533311838	0	0	0	-3.170302278549273	-3.104468010668548	-10.61892356853233	7.045439553803252	0.1229661174641069	0	0	0	0	0	0	27.19592107235323	-27.19592107235318	3.998327008680876	71.3185194302186	86.00167321716221	0	0	27.19592107235323	-27.19592107235318	3.998327008680876	71.3185194302186	86.0016732169735	0	0
15.45999999999976	-1.305594887804777	-2.679801618193145	-88.96037258389052	0	0.9399999999999999	0	13.56623263780295	-3.082553615944703	-6.430832454286503	33.8975237741315	0.5916233981316493	0	0	0	-2.801716522477792	-3.122491716812692	-10.52063821084322	7.193845687264438	0.1255562931231587	0	0	0	0	0	0	27.20207686288926	-27.20207686288921	3.999009149359705	71.32802807991084	86.00099107651967	0	0	27.20207686288926	-27.20207686288921	3.999009149359705	71.32802807991084	86.0009910763311	0	0
15.47999999999976	-1.158885684387721	-2.888312502048894	-88.58405167219199	0	0.9399999999999999	0	10.39636122670834	-3.700974970595167	-7.251895502175831	34.88602499757351	0.6088759991407047	0	0	0	-2.985599982547033	-2.982397106010489	-10.16713604113233	6.545322392014132	0.1142374263451576	0	0	0	0	0	0	27.25072080992351	-27.25072080992346	4.00368105789443	71.3925110843097	85.99631916822801	0	0	27.25072080992351	-27.25072080992346	4.00368105789443	71.3925110843097	85.99631916804027	0	0
15.49999999999976	-0.8896795242273008	-3.225278363893663	-88.10550087650407	0	0.9399999999999999	0	9.976014883021248	-4.282050752224364	-7.630367934026919	36.69507332180456	0.6404498487262222	0	0	0	-2.931108235880062	-2.845750770545073	-10.01454441106488	6.327369130388015	0.1104334243143213	0	0	0	0	0	0	27.25535153480448	-27.25535153480443	4.004194389060632	71.39966583040497	85.99580583708916	0	0	27.25535153480448	-27.25535153480443	4.004194389060632	71.39966583040497	85.99580583690147	0	0
15.51999999999976	-0.7996125494337433	-3.343648150149595	-88.01786231663502	0	0.9399999999999999	0	8.092093235399842	-4.899467859693738	-8.040512968569974	38.23865981037524	0.6673905152410785	0	0	0	-3.0362785601342	-2.73389131205096	-9.916895701806144	5.821160630896362	0.1015984192966119	0	0	0	0	0	0	27.26216922163941	-27.26216922163936	4.004950741513561	71.41020795615	85.99504948467647	0	0	27.26216922163941	-27.26216922163936	4.004950741513561	71.41020795615	85.99504948448893	0	0
15.53999999999976	-0.6570721558979372	-3.204823447140219	-87.87142017861558	0	0.9399999999999999	0	6.44145856095124	-5.360455116717348	-8.271655781370798	39.32345968597351	0.6863238447954932	0	0	0	-1.912256651858371	-2.881632282003635	-10.09735836654848	6.447720438171502	0.1125339508942242	0	0	0	0	0	0	27.26938705968903	-27.26938705968899	4.005749514792142	71.42133927195511	85.99425071144037	0	0	27.26938705968903	-27.26938705968899	4.005749514792142	71.42133927195511	85.99425071125295	0	0
15.55999999999976	-0.4639866614933411	-2.98627013545293	-87.69031881155541	0	0.9399999999999999	0	3.07929086040402	-5.879498291294526	-8.121770192431619	40.61410335571982	0.7088498263025886	0	0	0	-1.009704004215992	-2.759109613103067	-9.852706106262795	6.624305448859448	0.1156159407403982	0	0	0	0	0	0	27.37730466564206	-27.37730466564201	4.015990756926922	71.56258492149803	85.98400946983742	0	0	27.37730466564206	-27.37730466564201	4.015990756926922	71.56258492149803	85.98400946965195	0	0
15.57999999999976	-0.2369599759063109	-2.814051381203229	-87.61340304689638	0	0.9399999999999999	0	1.483709068067019	-6.64163931082024	-8.188547722641777	40.33819891397897	0.704034385373334	0	0	0	0.4809543089389389	-2.630514801510462	-9.666213927422371	7.373702463511873	0.1286953860506992	0	0	0	0	0	0	27.48143185737245	-27.4814318573724	4.025653302611673	71.69563544301074	85.97434692465251	0	0	27.48143185737245	-27.4814318573724	4.025653302611673	71.69563544301074	85.97434692446878	0	0
